Coordinates
version=1
nRows=26
nColumns=24
inDegrees=yes

Units are S.I. units (second, meters, Newtons, ...)
Angles are in degrees.

endheader
time	pelvis_tilt	pelvis_list	pelvis_rotation	pelvis_tx	pelvis_ty	pelvis_tz	hip_flexion_r	hip_adduction_r	hip_rotation_r	knee_angle_r	ankle_angle_r	subtalar_angle_r	mtp_angle_r	hip_flexion_l	hip_adduction_l	hip_rotation_l	knee_angle_l	ankle_angle_l	subtalar_angle_l	mtp_angle_l	lumbar_extension	lumbar_bending	lumbar_rotation
      3.04500000	     23.68133774	     -3.57158791	      8.20779635	      0.18933106	      1.03461741	      0.00984612	    -17.37805597	      8.33492120	     -9.31798216	    -12.10780452	      9.43254949	    -10.78611909	      3.41623253	     -7.83552094	    -11.65862864	     -0.57394126	    -57.32987836	     -0.00197207	    -15.33681902	     37.26581936	    -38.03438538	      6.28291944	      1.45165618
      3.05000000	     23.77738802	     -3.41024544	      8.10758782	      0.19428136	      1.03526495	      0.01025776	    -17.98294682	      8.24003344	     -9.17950266	    -11.80986107	      9.58525454	    -10.82503057	      3.01172797	     -7.45921947	    -11.40998803	     -0.73637962	    -56.98196901	      0.50792260	    -15.25763026	     35.59255588	    -38.16719508	      6.08490340	      1.48656826
      3.05500000	     23.78273759	     -3.28510364	      7.95612395	      0.19918041	      1.03575209	      0.01073808	    -18.45286671	      8.14283241	     -9.00671207	    -11.57124286	      9.72700845	    -10.73728306	      3.00593541	     -6.99500792	    -11.18894055	     -0.94916552	    -56.58887418	      0.94124295	    -15.07513254	     35.56074009	    -38.21110563	      5.88217901	      1.59486879
      3.06000000	     23.84186042	     -3.14065897	      7.81270546	      0.20409841	      1.03630282	      0.01119701	    -19.00296122	      8.03707230	     -8.83488863	    -11.29443387	      9.84691553	    -10.71892147	      2.98209968	     -6.62387861	    -10.95130657	     -1.16959702	    -56.10326659	      1.31496418	    -14.95452930	     35.46813524	    -38.30874935	      5.66933662	      1.67719646
      3.06500000	     23.90400271	     -2.98227856	      7.65953139	      0.20898954	      1.03683517	      0.01165058	    -19.55410585	      7.90923969	     -8.66452270	    -11.02417889	      9.97990205	    -10.68555934	      2.95561863	     -6.28325183	    -10.69081664	     -1.39834891	    -55.54326735	      1.66493188	    -14.82279159	     35.34507992	    -38.41500507	      5.43867178	      1.75588593
      3.07000000	     23.95030108	     -2.82293324	      7.51715935	      0.21387202	      1.03731453	      0.01207937	    -20.07991755	      7.77779482	     -8.53864351	    -10.76606329	     10.11659216	    -10.66756737	      2.93153716	     -5.93974015	    -10.42837466	     -1.62914925	    -54.92655570	      2.02329465	    -14.68420676	     35.22810178	    -38.50263840	      5.21021643	      1.82593444
      3.07500000	     24.02729046	     -2.68757818	      7.36147205	      0.21874724	      1.03780227	      0.01252183	    -20.65325947	      7.66744587	     -8.35209969	    -10.47341052	     10.23250594	    -10.58508141	      2.88760089	     -5.65404525	    -10.19545829	     -1.88338362	    -54.24156293	      2.33024843	    -14.49672995	     35.01422232	    -38.62283487	      4.99910009	      1.90382186
      3.08000000	     24.07089577	     -2.53894605	      7.21562004	      0.22360467	      1.03822642	      0.01293010	    -21.17986673	      7.53768028	     -8.20956491	    -10.19996124	     10.36447912	    -10.51676753	      2.83965460	     -5.34824654	     -9.93961389	     -2.12727030	    -53.49908156	      2.63282162	    -14.30414967	     34.77592540	    -38.70821368	      4.77937786	      1.96543962
      3.08500000	     24.16710749	     -2.34457774	      7.10406733	      0.22846398	      1.03869175	      0.01323523	    -21.77760284	      7.37423673	     -8.15778440	     -9.91035806	     10.52165746	    -10.44423564	      2.49501842	     -5.12936702	     -9.62582134	     -2.33256146	    -52.68010280	      2.99308528	    -14.14882345	     33.26463463	    -38.84864587	      4.54494545	      1.95838174
      3.09000000	     24.10669412	     -2.24965289	      6.96943013	      0.23323339	      1.03887501	      0.01361969	    -22.14593277	      7.28134330	     -8.03345535	     -9.69653149	     10.66456030	    -10.37929754	      2.49407837	     -4.71156118	     -9.41788877	     -2.56614215	    -51.87181315	      3.31339868	    -13.82394630	     33.23963626	    -38.82891801	      4.37088588	      2.05283307
      3.09500000	     24.21085235	     -2.12496692	      6.81633552	      0.23807477	      1.03925703	      0.01401817	    -22.74618266	      7.17115615	     -7.87638774	     -9.39634002	     10.77678165	    -10.26131098	      2.46586958	     -4.54664239	     -9.20146220	     -2.85879330	    -50.93318879	      3.56757437	    -13.53961393	     33.08109447	    -38.97676837	      4.17059169	      2.13127707
      3.10000000	     24.18861145	     -1.98043319	      6.69974655	      0.24284937	      1.03945271	      0.01433191	    -23.17132942	      7.03454306	     -7.80578034	     -9.16212925	     10.92754692	    -10.22350235	      2.45384071	     -4.23429629	     -8.93228366	     -3.07502743	    -49.96627930	      3.77728715	    -13.30135231	     32.97487312	    -38.99668928	      3.96551345	      2.15980137
      3.10500000	     24.23103442	     -1.85237854	      6.57763009	      0.24764445	      1.03968035	      0.01464401	    -23.68133878	      6.91632358	     -7.72111952	     -8.89787758	     11.05369960	    -10.13020498	      2.43976817	     -4.02847012	     -8.69348206	     -3.31837860	    -48.92497724	      3.99732360	    -13.02359499	     32.85008344	    -39.08309154	      3.77613186	      2.20103534
      3.11000000	     24.28999807	     -1.73025023	      6.47995209	      0.25244267	      1.03990041	      0.01486758	    -24.21366864	      6.80448283	     -7.68991995	     -8.62592686	     11.23386633	     -9.84295446	      2.08089237	     -3.85859888	     -8.45531433	     -3.54098813	    -47.84038817	      4.34305420	    -12.63940811	     30.85302757	    -39.18300645	      3.61348385	      2.21117606
      3.11500000	     24.32384789	     -1.62505120	      6.36432130	      0.25720869	      1.04003661	      0.01515734	    -24.71073872	      6.70955421	     -7.55801372	     -8.35620130	     11.34773087	     -9.82120536	      2.08364566	     -3.68299720	     -8.23920943	     -3.78371259	    -46.68992228	      4.51590890	    -12.32674390	     30.83324665	    -39.26022238	      3.44684451	      2.25212426
      3.12000000	     24.30749038	     -1.50272117	      6.25781992	      0.26197838	      1.04010101	      0.01536654	    -25.13421647	      6.58547441	     -7.51720445	     -8.12710638	     11.49084978	     -9.75782023	      2.09547768	     -3.47765315	     -7.98616295	     -3.99999929	    -45.47684960	      4.64671517	    -12.03776335	     30.79746104	    -39.28393232	      3.27264696	      2.27825231
      3.12500000	     24.39173110	     -1.39668932	      6.14795208	      0.26678367	      1.04024344	      0.01558092	    -25.69724832	      6.48450739	     -7.43063082	     -7.84195244	     11.60500258	     -9.57393941	      2.10823911	     -3.42560634	     -7.76618588	     -4.24313610	    -44.18260436	      4.77683022	    -11.73828404	     30.70543697	    -39.40894919	      3.11567109	      2.30404686
      3.13000000	     24.43321490	     -1.28244811	      6.04028680	      0.27157836	      1.04030427	      0.01574594	    -26.19704549	      6.36614809	     -7.38874345	     -7.58860890	     11.73084556	     -9.42165955	      2.11958057	     -3.34963680	     -7.52324187	     -4.46916222	    -42.83466299	      4.88710047	    -11.43643089	     30.57583670	    -39.49094773	      2.95301561	      2.32641225
      3.13500000	     24.47141675	     -1.17130445	      5.93974815	      0.27635532	      1.04033033	      0.01586981	    -26.68965101	      6.25016492	     -7.33379491	     -7.34044148	     11.87254429	     -9.27800521	      2.13360759	     -3.29377626	     -7.27630826	     -4.66939075	    -41.43064386	      4.97422196	    -11.09480324	     30.44774023	    -39.57032211	      2.79943438	      2.33996209
      3.14000000	     24.50934891	     -1.06474458	      5.83628955	      0.28115195	      1.04032397	      0.01598363	    -27.18048221	      6.13460674	     -7.29231993	     -7.09614045	     12.00880335	     -9.11804752	      2.14731983	     -3.26895113	     -7.03323009	     -4.87645327	    -39.96607857	      5.05232440	    -10.74297352	     30.29524602	    -39.64861271	      2.64679574	      2.35965802
      3.14500000	     24.54692311	     -0.96620829	      5.73707961	      0.28593711	      1.04027794	      0.01606199	    -27.66433587	      6.02479157	     -7.25028973	     -6.86129695	     12.14918085	     -8.96690735	      2.16120730	     -3.26949037	     -6.79363385	     -5.06606783	    -38.44790501	      5.11783955	    -10.35841237	     30.14126294	    -39.72546692	      2.50665918	      2.37687889
      3.15000000	     24.58916543	     -0.86624075	      5.63551066	      0.29075384	      1.04021063	      0.01611045	    -28.16188694	      5.91002054	     -7.22131316	     -6.61363354	     12.26977821	     -8.79519004	      2.17086911	     -3.30895754	     -6.54986089	     -5.26417439	    -36.86923735	      5.17105387	     -9.97364709	     29.94480810	    -39.80581379	      2.36530051	      2.39238626
      3.15500000	     24.61085939	     -0.77809469	      5.54538080	      0.29552821	      1.04007712	      0.01615168	    -28.61858839	      5.80834409	     -7.17317405	     -6.39597038	     12.41928655	     -8.64551835	      2.18280445	     -3.34273652	     -6.31194396	     -5.41484775	    -35.24909400	      5.20982493	     -9.53548557	     29.77346432	    -39.86714471	      2.23578758	      2.40526552
      3.16000000	     24.62835784	     -0.69486262	      5.45653425	      0.30031506	      1.03991256	      0.01613767	    -29.07239222	      5.70705091	     -7.13285212	     -6.17439399	     12.55983929	     -8.49782528	      2.19191287	     -3.40096812	     -6.07339657	     -5.56061353	    -33.57643991	      5.23162221	     -9.07856515	     29.60361242	    -39.92343864	      2.11743315	      2.41605988
      3.16500000	     24.65888854	     -0.61223256	      5.37192055	      0.30511426	      1.03972977	      0.01611673	    -29.54018876	      5.60849373	     -7.10098098	     -5.95501615	     12.69711151	     -8.34297333	      2.19897066	     -3.50465908	     -5.83622859	     -5.69387316	    -31.85062917	      5.23917983	     -8.59512535	     29.43453176	    -39.99128074	      1.99945588	      2.42321532
      3.17000000	     24.67681890	     -0.53497529	      5.29349623	      0.30992374	      1.03949731	      0.01606685	    -29.99438954	      5.51469996	     -7.07265960	     -5.73449152	     12.83287443	     -8.18326658	      2.20259724	     -3.61953338	     -5.60020183	     -5.80838181	    -30.08210055	      5.22867590	     -8.08837432	     29.25505097	    -40.04514427	      1.88872697	      2.42747949
